<svg width="62" height="62" viewBox="0 0 242 242" fill="none" xmlns="http://www.w3.org/2000/svg">
  <path d="M48.009 49.832a9 9 0 0 0-7.795 4.5L4.317 116.508a9 9 0 0 0 0 9l35.897 62.177a9 9 0 0 0 7.795 4.5h71.795a9 9 0 0 0 7.794-4.5l35.898-62.177a9 9 0 0 0 0-9l-35.898-62.176a9 9 0 0 0-7.794-4.5z" fill="#d5e5ff"/>
  <path d="M194.449 48.481c21.52 5.538 19.068 17.75 27.992 42.59 5.725 15.936 33.406 35.697 8.11 74.11-7.549 11.463-31.824 25.064-49.388 28.837-38.696 8.183-61.496-10.388-81.723-41.007-15.176-23.16-9.814-56.503 13.204-72.876 21.812-15.473 53.517-39.485 81.805-31.654" fill="#69a3ff"/>
</svg>
